<?xml version="1.0" standalone="no"?><!DOCTYPE svg PUBLIC "-//W3C//DTD SVG 1.1//EN" "http://www.w3.org/Graphics/SVG/1.1/DTD/svg11.dtd"><svg t="1727073096018" class="icon" viewBox="0 0 1024 1024" version="1.1" xmlns="http://www.w3.org/2000/svg" p-id="110878" xmlns:xlink="http://www.w3.org/1999/xlink" width="200" height="200"><path d="M457.955556 273.066667H995.555556v688.355555H457.955556z" fill="#48E3A6" p-id="110879"></path><path d="M625.777778 1004.088889H88.177778c-31.288889 0-59.733333-25.6-59.733334-56.888889V56.888889C28.444444 25.6 54.044444 0 88.177778 0h776.533333c31.288889 0 59.733333 25.6 59.733333 56.888889v668.444444c0 17.066667-5.688889 31.288889-17.066666 42.666667l-238.933334 221.866667c-14.222222 8.533333-28.444444 14.222222-42.666666 14.222222z m-477.866667-113.777778h455.111111l201.955556-190.577778V113.777778H147.911111v776.533333z" fill="#4c5e74" p-id="110880"></path><path d="M608.711111 335.644444H281.6c-31.288889 0-59.733333-25.6-59.733333-56.888888s25.6-56.888889 59.733333-56.888889h327.111111c31.288889 0 59.733333 25.6 59.733333 56.888889s-28.444444 56.888889-59.733333 56.888888z m0 216.177778H281.6c-31.288889 0-59.733333-25.6-59.733333-56.888889s25.6-56.888889 59.733333-56.888889h327.111111c31.288889 0 59.733333 25.6 59.733333 56.888889s-28.444444 56.888889-59.733333 56.888889z m0 219.022222H281.6c-31.288889 0-59.733333-25.6-59.733333-56.888888s25.6-56.888889 59.733333-56.888889h327.111111c31.288889 0 59.733333 25.6 59.733333 56.888889s-28.444444 56.888889-59.733333 56.888888z" fill="#4c5e74" p-id="110881"></path></svg>