<?xml version="1.0" standalone="no"?><!DOCTYPE svg PUBLIC "-//W3C//DTD SVG 1.1//EN" "http://www.w3.org/Graphics/SVG/1.1/DTD/svg11.dtd"><svg t="1727072542148" class="icon" viewBox="0 0 1024 1024" version="1.1" xmlns="http://www.w3.org/2000/svg" p-id="7808" xmlns:xlink="http://www.w3.org/1999/xlink" width="200" height="200"><path d="M512.3 191.1c43.3 0 85.2 8.4 124.5 25.1 38.1 16.1 72.3 39.2 101.8 68.6s52.5 63.7 68.6 101.8c16.7 39.4 25.1 81.3 25.1 124.5s-8.4 85.2-25.1 124.5c-16.1 38.1-39.2 72.3-68.6 101.8s-63.7 52.5-101.8 68.6c-39.4 16.7-81.3 25.1-124.5 25.1s-85.2-8.4-124.5-25.1c-38.1-16.1-72.3-39.2-101.8-68.6-29.4-29.4-52.5-63.7-68.6-101.8-16.7-39.4-25.1-81.3-25.1-124.5s8.4-85.2 25.1-124.5c16.1-38.1 39.2-72.3 68.6-101.8 29.4-29.4 63.7-52.5 101.8-68.6 39.4-16.6 81.3-25.1 124.5-25.1m0-128c-247.4 0-448 200.6-448 448s200.6 448 448 448 448-200.6 448-448-200.6-448-448-448z" fill="#ffffff" p-id="7809"></path><path d="M512.1 730.6c-35.3 0-64-28.7-64-64V491.9c0-35.3 28.7-64 64-64s64 28.7 64 64v174.7c0 35.3-28.6 64-64 64z" fill="#ffffff" p-id="7810"></path><path d="M512.3 336.7m-64 0a64 64 0 1 0 128 0 64 64 0 1 0-128 0Z" fill="#ffffff" p-id="7811"></path></svg>